PathFileType	4	(X/Y/Z)	C:/Users/opensim2020/Desktop/walking_exp_matlab/subject03_walking09_straight_01.trc																																																																																																																																											
DataRate	CameraRate	NumFrames	NumMarkers	Units	OrigDataRate	OrigDataStartFrame	OrigNumFrames																																																																																																																																							
100	100	5	47	mm	100	933	493																																																																																																																																							
Frame#	Time	LFHD			RFHD			LBHD			RBHD			C7			T10			CLAV			STRN			RBAK			LSHO			LUPA			LELB			LFRM			LWRA			LWRB			LFIN			RSHO			RUPA			RELB			RFRM			RWRA			RWRB			RFIN			LASI			RASI			LPSI			RPSI			LTHI			LKNE			LTIB			LANK			LHEE			LTOE			RTHI			RKNE			RTIB			RANK			RHEE			RTOE			*39			*40			*41			*42			*43			*44			*45			*46		
		X1	Y1	Z1	X2	Y2	Z2	X3	Y3	Z3	X4	Y4	Z4	X5	Y5	Z5	X6	Y6	Z6	X7	Y7	Z7	X8	Y8	Z8	X9	Y9	Z9	X10	Y10	Z10	X11	Y11	Z11	X12	Y12	Z12	X13	Y13	Z13	X14	Y14	Z14	X15	Y15	Z15	X16	Y16	Z16	X17	Y17	Z17	X18	Y18	Z18	X19	Y19	Z19	X20	Y20	Z20	X21	Y21	Z21	X22	Y22	Z22	X23	Y23	Z23	X24	Y24	Z24	X25	Y25	Z25	X26	Y26	Z26	X27	Y27	Z27	X28	Y28	Z28	X29	Y29	Z29	X30	Y30	Z30	X31	Y31	Z31	X32	Y32	Z32	X33	Y33	Z33	X34	Y34	Z34	X35	Y35	Z35	X36	Y36	Z36	X37	Y37	Z37	X38	Y38	Z38	X39	Y39	Z39	X40	Y40	Z40	X41	Y41	Z41	X42	Y42	Z42	X43	Y43	Z43	X44	Y44	Z44	X45	Y45	Z45	X46	Y46	Z46	X47	Y47	Z47
																																																																																																																																														
309	3.08	228.61879	1606.28003	-1094.11926	197.83359	1611.98682	-964.58466	102.30904	1565.24731	-1119.20691	77.02369	1570.20056	-990.73389	56.63234	1407.29993	-1063.33545	10.46581	1096.28943	-1060.51587	174.76067	1326.65381	-1045.24109	212.93448	1160.60693	-1047.38501	-14.75628	1234.02478	-975.06244	153.4523	1365.46912	-1204.05115	182.99503	1176.57495	-1280.19836	221.57225	1060.59229	-1292.21851	290.46024	951.92609	-1277.52722	345.26511	852.06433	-1233.92944	332.94507	846.448	-1287.63086	380.54709	780.05585	-1269.05591	109.03796	1349.86548	-892.9068	98.41578	1127.85791	-821.54828	113.87833	1016.33356	-806.53027	141.37852	882.31354	-805.13721	186.38826	792.4538	-838.27106	149.35266	781.94403	-800.29285	179.97986	714.05859	-809.55676	178.95732	929.37744	-1166.06665	167.06703	926.57849	-928.32336	14.62606	956.21368	-1122.57825	8.28528	955.77014	-973.72284	87.11915	632.93182	-1200.04077	58.48967	457.47128	-1160.44971	-29.01965	279.41513	-1159.36658	-82.78667	74.30569	-1113.40271	-127.14569	44.47756	-1075.89612	66.30455	28.80779	-1088.55078	164.59087	634.58759	-876.85669	246.62889	472.92401	-906.65149	270.38089	291.22101	-894.2287	338.95218	82.13536	-924.15881	312.98932	41.14574	-980.77185	486.56036	75.16559	-928.7301	138.00989	1670.60522	-1063.48926	NaN	NaN	NaN	NaN	NaN	NaN	NaN	NaN	NaN	NaN	NaN	NaN	NaN	NaN	NaN	NaN	NaN	NaN	NaN	NaN	NaN
310	3.09	235.17221	1605.82117	-1093.16614	204.04401	1611.33228	-963.66846	108.88863	1564.55859	-1118.40857	83.59162	1569.50745	-989.91071	63.42338	1406.54626	-1062.28223	17.475	1095.62512	-1059.28711	181.63234	1326.00671	-1044.41357	219.92873	1159.9939	-1046.79578	-7.65449	1233.1947	-974.03082	160.01088	1364.84741	-1203.22534	189.21486	1175.79053	-1279.18933	227.89064	1059.79749	-1290.86584	297.12607	951.3526	-1275.76929	352.20691	851.90948	-1231.60327	339.98242	845.94659	-1285.27869	387.72531	779.81927	-1266.2804	116.05035	1349.10632	-891.93323	104.83041	1127.0144	-820.73083	119.91817	1015.49561	-805.66461	146.88474	881.39374	-804.15155	191.67442	791.34839	-837.09766	154.40028	780.96606	-799.31183	184.81053	712.93146	-808.42413	184.77679	928.55713	-1166.11389	174.35934	925.74261	-927.76996	21.26872	955.67792	-1121.39124	15.47975	955.20013	-972.46869	92.32024	632.74243	-1199.82214	63.00813	457.22037	-1160.70874	-26.38746	279.94324	-1159.66333	-82.21459	75.17397	-1113.82275	-126.73879	45.76662	-1076.49329	66.40753	28.77174	-1088.70557	172.30394	633.91418	-876.93524	254.17152	472.3981	-906.49561	278.46371	290.86932	-893.84479	347.19565	81.73193	-923.86353	321.31808	40.45582	-980.29694	494.82022	75.30581	-928.70306	143.45757	1669.16504	-1061.86475	NaN	NaN	NaN	NaN	NaN	NaN	NaN	NaN	NaN	NaN	NaN	NaN	NaN	NaN	NaN	NaN	NaN	NaN	NaN	NaN	NaN
311	3.1	241.72849	1605.39661	-1092.29138	210.7737	1610.97595	-962.85065	115.49755	1563.80139	-1117.51929	90.1421	1568.76233	-989.01288	70.30241	1405.87744	-1061.26746	24.53367	1094.95374	-1058.0083	188.57951	1325.42603	-1043.58069	227.10507	1159.4762	-1046.13123	-0.43208	1232.37134	-972.95416	166.65791	1364.2511	-1202.39783	195.47386	1174.96533	-1278.12964	234.14397	1058.90808	-1289.55725	303.59576	950.71851	-1273.94983	358.97595	851.66064	-1229.29871	346.69498	845.35779	-1283.03564	394.58066	779.37036	-1263.53137	123.17881	1348.4342	-890.93506	111.4173	1126.27039	-819.88739	126.11288	1014.76007	-804.72339	152.47342	880.51788	-803.1073	196.72505	790.10486	-835.91357	159.54375	780.08105	-798.12415	189.58241	711.85486	-807.12604	191.14532	928.06989	-1165.54724	181.88867	925.03467	-927.24146	27.91919	955.17462	-1120.0686	22.89008	954.66608	-971.18317	97.62745	632.55988	-1199.59436	67.67994	457.02585	-1160.93347	-23.60099	280.43533	-1159.896	-81.58333	76.21049	-1114.19568	-126.65213	47.39617	-1076.7804	66.537	28.68262	-1088.84265	179.80818	633.36121	-876.72113	262.02576	471.99606	-906.20258	286.12823	290.34488	-893.34686	353.93338	80.99316	-923.79059	327.87115	39.63094	-980.15314	501.54291	74.3581	-929.02985	149.92554	1668.5719	-1060.99426	NaN	NaN	NaN	NaN	NaN	NaN	NaN	NaN	NaN	NaN	NaN	NaN	NaN	NaN	NaN	NaN	NaN	NaN	NaN	NaN	NaN
312	3.11	248.27603	1605.00305	-1091.45166	217.15506	1610.46313	-961.94922	122.17007	1563.26282	-1116.3689	96.842	1568.21826	-988.07904	77.22126	1405.22449	-1060.12732	31.76607	1094.32153	-1056.70654	195.63301	1324.90405	-1042.63464	234.24533	1158.93298	-1045.40405	6.9208	1231.54028	-971.85748	173.41287	1363.67505	-1201.47839	201.81491	1174.19238	-1276.98108	240.31192	1058.01758	-1288.18164	309.87878	949.99109	-1272.16821	365.33286	851.12964	-1227.03479	353.15445	844.63422	-1280.62244	401.03659	778.70044	-1260.8136	130.31203	1347.82544	-889.85449	118.10559	1125.65063	-818.9505	132.48961	1014.07501	-803.70667	158.17239	879.69922	-801.93915	202.04889	789.04156	-834.59106	164.72025	779.22699	-796.80359	194.38786	710.91766	-805.716	197.61118	927.64343	-1164.76807	189.54268	924.46283	-926.73193	34.68722	954.71393	-1118.72095	30.3616	954.17548	-969.80115	103.07217	632.36847	-1199.33276	72.41411	456.79407	-1161.16479	-20.83528	281.06927	-1160.15271	-80.88846	77.23029	-1114.5929	-126.2128	48.90022	-1077.15088	66.74462	28.62324	-1088.88733	187.86969	633.15228	-876.17389	269.94427	471.68179	-905.82855	293.20941	289.58994	-893.00946	359.33865	79.77576	-923.79657	332.6684	38.63145	-980.21252	506.82462	72.4399	-929.69995	156.34235	1668.01611	-1060.20105	NaN	NaN	NaN	NaN	NaN	NaN	NaN	NaN	NaN	NaN	NaN	NaN	NaN	NaN	NaN	NaN	NaN	NaN	NaN	NaN	NaN
313	3.12	254.88832	1604.68774	-1090.54407	224.13202	1610.41138	-961.30908	128.85052	1562.6073	-1115.38232	103.51457	1567.45947	-987.07648	84.2949	1404.60852	-1058.97791	39.11991	1093.70227	-1055.39929	202.78255	1324.38062	-1041.6936	241.53447	1158.43091	-1044.56836	14.348	1230.77246	-970.62683	180.20338	1363.07446	-1200.5249	208.04903	1173.41187	-1275.74817	246.41566	1057.07617	-1286.77551	315.99982	949.14917	-1270.36975	371.56113	850.5246	-1224.79907	359.28958	843.73608	-1278.51563	407.10629	777.82434	-1258.17603	137.6515	1347.33777	-888.77936	124.93392	1125.08411	-817.92651	139.01425	1013.5033	-802.64282	163.99774	878.93329	-800.70514	207.47736	788.01227	-833.14374	169.98875	778.4657	-795.38513	199.13733	709.88593	-804.13123	204.47835	927.13995	-1164.46924	197.42349	923.92657	-926.0448	41.57607	954.18378	-1117.27893	37.94942	953.74127	-968.40289	108.62799	632.15741	-1198.97192	77.1812	456.60352	-1161.34216	-17.91687	281.69763	-1160.16785	-80.2697	78.48594	-1114.92896	-125.73875	50.6087	-1077.5625	66.85097	28.47231	-1088.90918	195.67291	633.02032	-875.33344	277.81491	471.28787	-905.53979	299.6571	288.60703	-892.72742	363.50067	78.16018	-923.96332	336.13	37.19812	-980.16754	510.83392	69.71809	-930.745	NaN	NaN	NaN	NaN	NaN	NaN	NaN	NaN	NaN	NaN	NaN	NaN	NaN	NaN	NaN	NaN	NaN	NaN	NaN	NaN	NaN	NaN	NaN	NaN
